<?xml version="1.0" standalone="no"?>
<!DOCTYPE svg PUBLIC "-//W3C//DTD SVG 20010904//EN"
 "http://www.w3.org/TR/2001/REC-SVG-20010904/DTD/svg10.dtd">
<svg version="1.0" xmlns="http://www.w3.org/2000/svg"
 width="260.000000pt" height="260.000000pt" viewBox="0 0 260.000000 260.000000"
 preserveAspectRatio="xMidYMid meet">
<metadata>
Created by potrace 1.14, written by Peter Selinger 2001-2017
</metadata>
<g transform="translate(0.000000,260.000000) scale(0.100000,-0.100000)"
fill="#000000" stroke="none">
<path d="M0 1300 l0 -1300 1300 0 1300 0 0 1300 0 1300 -1300 0 -1300 0 0
-1300z m788 415 c61 -14 137 -49 176 -80 19 -14 18 -16 -18 -70 -21 -30 -42
-55 -47 -55 -4 0 -24 11 -43 24 -82 55 -246 61 -329 13 -97 -57 -147 -148
-147 -268 0 -184 109 -300 284 -302 84 -1 128 12 218 65 128 76 196 82 296 27
28 -16 77 -43 107 -60 77 -43 145 -48 208 -16 l47 24 40 -50 c47 -58 45 -63
-36 -103 -64 -31 -167 -42 -230 -25 -22 6 -78 34 -125 62 -116 71 -148 74
-236 21 -132 -80 -155 -87 -283 -87 -97 0 -124 4 -173 24 -108 43 -194 130
-239 241 -19 47 -23 74 -23 180 0 120 1 128 32 193 94 198 300 294 521 242z
m762 -10 c24 -8 64 -27 87 -41 l43 -25 -41 -54 -40 -54 -62 30 c-74 35 -142
38 -204 10 -47 -22 -63 -45 -63 -94 0 -57 36 -81 198 -132 59 -19 130 -48 157
-65 28 -18 102 -85 165 -149 98 -101 123 -121 173 -140 71 -26 139 -27 194 -2
46 21 63 45 63 88 0 48 -28 74 -139 125 -161 74 -173 80 -215 118 -71 63 -91
141 -61 231 57 166 278 228 470 132 80 -40 79 -38 34 -98 l-40 -53 -50 26
c-65 33 -145 40 -204 17 -52 -19 -75 -47 -75 -90 0 -44 20 -67 86 -97 33 -15
97 -44 144 -66 147 -67 199 -131 200 -248 0 -150 -120 -244 -312 -244 -145 0
-268 61 -362 179 -99 123 -153 161 -286 201 -110 34 -172 63 -218 105 -136
122 -66 347 125 401 59 17 171 12 233 -11z"/>
</g>
</svg>
